<?xml version="1.0" encoding="utf-8"?>
<!-- Generator: Adobe Illustrator 20.1.0, SVG Export Plug-In . SVG Version: 6.00 Build 0)  -->
<svg version="1.1" id="Layer_1" xmlns="http://www.w3.org/2000/svg" xmlns:xlink="http://www.w3.org/1999/xlink" x="0px" y="0px"
	 viewBox="0 0 50 80.5" style="enable-background:new 0 0 50 80.5;" xml:space="preserve">
<style type="text/css">
	.st0{display:none;fill:#1B75BC;}
	.st1{fill:#939598;}
	.st2{fill:#010101;stroke:#010101;stroke-width:0.1;}
	.st3{fill:#010101;stroke:#010101;stroke-width:9.213948e-02;}
</style>
<rect x="1.1" class="st0" width="50" height="12.2"/>
<rect x="0" y="13.3" class="st0" width="50" height="12.2"/>
<rect x="1.1" y="25.5" class="st0" width="50" height="12.2"/>
<rect x="0" y="37.7" class="st0" width="50" height="12.2"/>
<rect x="1.1" y="49.9" class="st0" width="50" height="12.2"/>
<rect x="0" y="62.2" class="st0" width="50" height="12.2"/>
<rect x="1.1" y="74.4" class="st0" width="50" height="12.2"/>
<rect x="0" y="12.2" class="st1" width="50" height="1.1"/>
<rect x="0" y="36.7" class="st1" width="50" height="1.1"/>
<rect x="0" y="48.9" class="st1" width="50" height="1.1"/>
<rect x="0" y="24.4" class="st1" width="50" height="1.1"/>
<rect x="-24.4" y="36.7" transform="matrix(1.757987e-14 1 -1 1.757987e-14 37.7653 36.6502)" class="st1" width="50" height="1.1"/>
<rect x="0" y="61.1" class="st1" width="50" height="1.1"/>
<g>
	
		<sodipodi:namedview  bordercolor="#666666" borderopacity="1.0" gridtolerance="10.0" guidetolerance="10.0" height="75px" id="base" inkscape:current-layer="svg1938" inkscape:cx="45" inkscape:cy="36.5" inkscape:pageopacity="0.0" inkscape:pageshadow="2" inkscape:window-height="968" inkscape:window-width="1280" inkscape:window-x="-4" inkscape:window-y="-4" inkscape:zoom="10.575342" objecttolerance="10.0" pagecolor="#ffffff" showgrid="true" width="44px">
		</sodipodi:namedview>
	<g id="g1876_1_" transform="matrix(1.010278,0,0,1.010278,-24.38602,-0.986803)">
		<path id="path1947_1_" sodipodi:nodetypes="cssssssssscsssssssssc" class="st2" d="M38.9,71.9c-0.5,2.5,2.2,7.8,7.5,8
			c6.5,0.2,10.6-4.7,8.7-12.8l-9.6-44.5c-1.1-5.3-0.3-8.2,0.3-9.9c1.6-4.6,5.7-6.5,6.7-5c0.6,0.8,1.9,4.7-2,11.7
			c-3,5.5-17.2,12.6-18.3,25.4C31.4,56,43,64.2,53.1,61c6.7-2.1,10.1-12.3,6-17.5c-10.9-13.8-28.4,7.3-11.5,13.1
			c-1.8-1.4-3.1-2.6-3.3-3.9c-2.3-13.4,17.8-9.8,12.4,2.8c-2.2,5.2-11.2,6.2-16.3,1.6c-4.3-3.9-6.2-11.4-1.4-16.8
			C45.4,33,53,26.4,55,16.4c2.4-11.8-5.4-21-10.4-9.4c-1.7,3.9-2.3,7.8-0.7,15.3l9.6,45.5c0.7,3.3,0.2,7.7-2.8,9.8
			c-1.5,1-6.8,1.7-8.1-0.7"/>
		
			<path id="path4608_1_" sodipodi:cx="44.809425" sodipodi:cy="64.584198" sodipodi:rx="3.439605" sodipodi:ry="3.4987047" sodipodi:type="arc" class="st3" d="
			M38.8,72.3c0-2.6,2.1-4.6,4.6-4.5c2.5,0,4.5,2.2,4.5,4.7c0,2.6-2.1,4.6-4.6,4.5C40.8,76.9,38.8,74.8,38.8,72.3z"/>
	</g>
</g>
</svg>
